<?xml version="1.0" standalone="no"?>
<!DOCTYPE svg PUBLIC "-//W3C//DTD SVG 20010904//EN"
 "http://www.w3.org/TR/2001/REC-SVG-20010904/DTD/svg10.dtd">
<svg version="1.0" xmlns="http://www.w3.org/2000/svg"
 width="513.000000pt" height="513.000000pt" viewBox="0 0 513.000000 513.000000"
 preserveAspectRatio="xMidYMid meet">

<g transform="translate(0.000000,513.000000) scale(0.100000,-0.100000)"
fill="#000000" stroke="none">
<path d="M3040 4646 c0 -2 21 -12 48 -22 104 -40 283 -156 429 -279 172 -145
312 -301 416 -462 38 -59 157 -285 188 -358 l26 -60 271 -3 272 -2 -27 62
c-15 35 -32 70 -38 78 -7 8 -29 47 -50 85 -106 193 -227 346 -395 495 -233
208 -437 322 -735 409 -82 24 -405 70 -405 57z"/>
<path d="M2049 4625 c-276 -31 -588 -167 -827 -359 -218 -175 -338 -312 -472
-541 -29 -49 -60 -101 -69 -115 -47 -70 -136 -311 -185 -502 -51 -198 -61
-301 -61 -608 0 -306 9 -396 61 -604 34 -134 104 -332 123 -346 3 -3 26 -43
50 -90 99 -192 211 -342 358 -478 174 -160 292 -242 478 -332 199 -95 496
-180 633 -180 28 0 19 7 -64 50 -364 189 -667 489 -842 832 -182 356 -247 614
-259 1018 -9 310 18 525 94 750 42 123 126 307 183 395 37 60 60 87 190 228
132 143 337 280 515 344 148 53 423 67 609 32 236 -45 479 -198 650 -409 34
-41 71 -84 82 -97 32 -32 88 -128 139 -235 43 -91 125 -322 125 -353 0 -30 2
-28 242 191 73 66 150 136 171 155 l38 34 -26 65 c-36 91 -173 328 -252 435
-121 162 -337 362 -520 478 -176 113 -436 218 -590 238 -123 17 -443 19 -574
4z"/>
<path d="M2151 3975 c-218 -49 -397 -147 -559 -304 -40 -39 -75 -71 -78 -71
-17 0 -148 -190 -194 -281 -49 -97 -106 -241 -133 -339 -88 -317 -85 -762 8
-1127 79 -308 276 -658 484 -857 228 -220 444 -350 731 -441 452 -142 936
-103 1365 110 333 166 613 435 791 760 22 39 46 84 56 100 28 49 55 106 77
161 l20 51 -179 162 c-98 88 -198 176 -223 195 l-46 35 -26 -87 c-66 -223
-168 -448 -225 -502 -9 -8 -36 -40 -59 -71 -66 -90 -185 -203 -282 -269 -111
-76 -280 -158 -351 -170 -29 -5 -84 -17 -123 -26 -113 -28 -389 -26 -525 4
-164 37 -286 91 -425 188 -88 61 -237 209 -294 292 -24 34 -47 62 -51 62 -10
0 -104 183 -138 270 -120 304 -141 736 -51 1070 53 195 148 386 265 532 62 77
164 178 180 178 6 0 31 15 55 33 128 97 319 181 489 215 l95 19 -60 30 c-33
17 -98 43 -145 58 -74 24 -104 28 -235 31 -106 3 -169 -1 -214 -11z"/>
<path d="M4017 3195 c-67 -63 -156 -146 -197 -185 l-75 -70 228 0 c210 0 230
2 245 18 10 11 97 92 195 181 97 89 177 164 177 167 0 2 -101 4 -225 4 l-226
0 -122 -115z"/>
<path d="M3557 2173 c-2 -5 -10 -26 -17 -48 -23 -71 -88 -212 -130 -282 -75
-124 -218 -293 -247 -293 -8 0 -33 -15 -56 -34 -67 -54 -182 -125 -265 -163
-80 -36 -282 -93 -333 -93 -45 0 -35 -15 29 -43 139 -61 258 -87 398 -87 336
0 632 130 871 385 89 94 149 185 206 310 37 83 107 302 107 336 0 18 -9 19
-279 19 -154 0 -282 -3 -284 -7z"/>
</g>
</svg>
